<svg width="20" height="22" viewBox="0 0 20 22" fill="none" xmlns="http://www.w3.org/2000/svg">
<path fill-rule="evenodd" clip-rule="evenodd" d="M3 8.00002L3 7.14287C3 5.16668 3.68273 3.48191 5.0482 2.08858C6.41367 0.695248 8.06427 -0.00094183 10 8.60121e-06C11.9367 8.60121e-06 13.5877 0.696677 14.9532 2.09001C16.3187 3.48334 17.0009 5.16763 17 7.14287L17 8.00002C18.6569 8.00002 20 9.34316 20 11V19C20 20.6569 18.6569 22 17 22H3C1.34315 22 0 20.6569 0 19V11C0 9.34316 1.34315 8.00002 3 8.00002ZM5.8 8.00002H14.2V7.14287C14.2 5.95239 13.7917 4.94049 12.975 4.10715C12.1583 3.27382 11.1667 2.85715 10 2.85715C8.83333 2.85715 7.84167 3.27382 7.025 4.10715C6.20833 4.94049 5.8 5.95239 5.8 7.14287V8.00002ZM12 15C12 16.1046 11.1046 17 10 17C8.89543 17 8 16.1046 8 15C8 13.8954 8.89543 13 10 13C11.1046 13 12 13.8954 12 15Z" fill="#838390"/>
</svg>
