<svg width="48" height="48" viewBox="0 0 48 48" fill="none" xmlns="http://www.w3.org/2000/svg">
<circle cx="24" cy="24.2266" r="22.2422" stroke="#CD1515" stroke-width="2"/>
<mask id="path-2-inside-1_442_130812" fill="white">
<path fill-rule="evenodd" clip-rule="evenodd" d="M19.6271 19.8554C19.2366 20.2459 19.2366 20.8791 19.6271 21.2696L22.302 23.9445C22.4582 24.1007 22.4582 24.354 22.302 24.5102L19.627 27.1852C19.2364 27.5758 19.2364 28.2089 19.627 28.5995C20.0175 28.99 20.6506 28.99 21.0412 28.5995L23.7162 25.9244C23.8724 25.7682 24.1257 25.7682 24.2819 25.9244L26.957 28.5995C27.3475 28.99 27.9806 28.99 28.3712 28.5995C28.7617 28.2089 28.7617 27.5758 28.3712 27.1852L25.6961 24.5102C25.5399 24.354 25.5399 24.1007 25.6961 23.9445L28.371 21.2696C28.7615 20.8791 28.7615 20.2459 28.371 19.8554C27.9805 19.4649 27.3473 19.4649 26.9568 19.8554L24.2819 22.5303C24.1257 22.6865 23.8724 22.6865 23.7162 22.5303L21.0413 19.8554C20.6508 19.4649 20.0176 19.4649 19.6271 19.8554Z"/>
</mask>
<path fill-rule="evenodd" clip-rule="evenodd" d="M19.6271 19.8554C19.2366 20.2459 19.2366 20.8791 19.6271 21.2696L22.302 23.9445C22.4582 24.1007 22.4582 24.354 22.302 24.5102L19.627 27.1852C19.2364 27.5758 19.2364 28.2089 19.627 28.5995C20.0175 28.99 20.6506 28.99 21.0412 28.5995L23.7162 25.9244C23.8724 25.7682 24.1257 25.7682 24.2819 25.9244L26.957 28.5995C27.3475 28.99 27.9806 28.99 28.3712 28.5995C28.7617 28.2089 28.7617 27.5758 28.3712 27.1852L25.6961 24.5102C25.5399 24.354 25.5399 24.1007 25.6961 23.9445L28.371 21.2696C28.7615 20.8791 28.7615 20.2459 28.371 19.8554C27.9805 19.4649 27.3473 19.4649 26.9568 19.8554L24.2819 22.5303C24.1257 22.6865 23.8724 22.6865 23.7162 22.5303L21.0413 19.8554C20.6508 19.4649 20.0176 19.4649 19.6271 19.8554Z" fill="#CD1515"/>
<path d="M19.6271 21.2696L18.92 21.9767L18.92 21.9767L19.6271 21.2696ZM19.6271 19.8554L18.92 19.1483L18.92 19.1483L19.6271 19.8554ZM19.627 28.5995L18.9198 29.3066L18.9198 29.3066L19.627 28.5995ZM21.0412 28.5995L21.7483 29.3066L21.7483 29.3066L21.0412 28.5995ZM26.957 28.5995L27.6641 27.8923L27.6641 27.8923L26.957 28.5995ZM28.3712 28.5995L29.0783 29.3066L29.0783 29.3066L28.3712 28.5995ZM28.3712 27.1852L27.6641 27.8923L27.6641 27.8923L28.3712 27.1852ZM28.371 21.2696L27.6639 20.5625L27.6639 20.5625L28.371 21.2696ZM28.371 19.8554L27.6639 20.5625L27.6639 20.5625L28.371 19.8554ZM26.9568 19.8554L27.6639 20.5625L26.9568 19.8554ZM21.0413 19.8554L21.7484 19.1483L21.7484 19.1483L21.0413 19.8554ZM25.6961 23.9445L26.4032 24.6516L25.6961 23.9445ZM23.7162 25.9244L24.4233 26.6315L23.7162 25.9244ZM24.2819 25.9244L23.5748 26.6315L24.2819 25.9244ZM22.302 23.9445L21.5949 24.6516L22.302 23.9445ZM18.92 21.9767C18.139 21.1957 18.139 19.9293 18.92 19.1483L20.3342 20.5625V20.5625L18.92 21.9767ZM21.5949 24.6516L18.92 21.9767L20.3342 20.5625L23.0091 23.2374L21.5949 24.6516ZM23.0091 25.2173L20.3341 27.8923L18.9198 26.4781L21.5949 23.8031L23.0091 25.2173ZM20.3341 27.8923L20.3341 27.8923L18.9198 29.3066C18.1388 28.5255 18.1388 27.2592 18.9198 26.4781L20.3341 27.8923ZM20.3341 27.8923L20.3341 27.8923L21.7483 29.3066C20.9672 30.0876 19.7009 30.0876 18.9198 29.3066L20.3341 27.8923ZM20.3341 27.8923L23.0091 25.2173L24.4233 26.6315L21.7483 29.3066L20.3341 27.8923ZM26.2498 29.3066L23.5748 26.6315L24.989 25.2173L27.6641 27.8923L26.2498 29.3066ZM29.0783 29.3066C28.2972 30.0876 27.0309 30.0876 26.2498 29.3066L27.6641 27.8923L27.6641 27.8923L29.0783 29.3066ZM29.0783 26.4781C29.8593 27.2592 29.8593 28.5255 29.0783 29.3066L27.6641 27.8923L27.6641 27.8923L29.0783 26.4781ZM26.4032 23.8031L29.0783 26.4781L27.6641 27.8923L24.989 25.2173L26.4032 23.8031ZM24.989 23.2374L27.6639 20.5625L29.0781 21.9767L26.4032 24.6516L24.989 23.2374ZM27.6639 20.5625L27.6639 20.5625L29.0781 19.1483C29.8592 19.9293 29.8592 21.1957 29.0781 21.9767L27.6639 20.5625ZM27.6639 20.5625L27.6639 20.5625L26.2497 19.1483C27.0307 18.3672 28.2971 18.3672 29.0781 19.1483L27.6639 20.5625ZM27.6639 20.5625L24.989 23.2374L23.5748 21.8232L26.2497 19.1483L27.6639 20.5625ZM21.7484 19.1483L24.4233 21.8232L23.0091 23.2374L20.3342 20.5625L21.7484 19.1483ZM18.92 19.1483C19.701 18.3672 20.9674 18.3672 21.7484 19.1483L20.3342 20.5625L20.3342 20.5625L18.92 19.1483ZM24.989 23.2374C24.4423 23.7841 23.5558 23.7841 23.0091 23.2374L24.4233 21.8232C24.189 21.5889 23.8091 21.5889 23.5748 21.8232L24.989 23.2374ZM24.989 25.2173C24.4423 24.6706 24.4423 23.7841 24.989 23.2374L26.4032 24.6516C26.6375 24.4173 26.6375 24.0374 26.4032 23.8031L24.989 25.2173ZM23.0091 25.2173C23.5558 24.6706 24.4423 24.6706 24.989 25.2173L23.5748 26.6315C23.8091 26.8658 24.189 26.8658 24.4233 26.6315L23.0091 25.2173ZM23.0091 23.2374C23.5558 23.7841 23.5558 24.6706 23.0091 25.2173L21.5949 23.8031C21.3606 24.0374 21.3606 24.4173 21.5949 24.6516L23.0091 23.2374Z" fill="#CD1515" mask="url(#path-2-inside-1_442_130812)"/>
</svg>
