<svg width="23" height="27" viewBox="0 0 23 27" fill="none" xmlns="http://www.w3.org/2000/svg">
<path fill-rule="evenodd" clip-rule="evenodd" d="M5.75479 0.565199C5.40045 0.911859 5.39062 0.951471 5.39062 2.02884V3.1362L4.88151 3.21308C3.93108 3.35653 2.87692 3.76975 2.17841 4.27287C1.08974 5.0569 0.423823 6.21337 0.121349 7.84564C0.00586985 8.46865 0.0138959 8.61901 0.175375 8.86008L0.364886 9.1431H11.5H22.6351L22.8246 8.86008C22.9861 8.61901 22.9941 8.46865 22.8787 7.84564C22.5762 6.21337 21.9103 5.0569 20.8216 4.27287C20.1231 3.76975 19.0689 3.35653 18.1185 3.21308L17.6094 3.1362V2.02884C17.6094 0.951471 17.5996 0.911859 17.2452 0.565199C16.9405 0.267058 16.8183 0.220766 16.4965 0.28159C15.8349 0.406636 15.6927 0.701496 15.6927 1.94867V3.04901H11.5H7.30729V1.94867C7.30729 0.701496 7.1651 0.406636 6.50349 0.28159C6.18173 0.220766 6.05954 0.267058 5.75479 0.565199ZM0.407292 11.4167L0 11.8151L0.00203625 16.4267C0.00371334 19.9487 0.0442033 21.2231 0.173578 21.8204C0.679938 24.1576 2.2867 25.6516 4.75729 26.0826C6.11261 26.3189 16.9037 26.316 18.2639 26.0789C20.1757 25.7457 21.5642 24.7858 22.3205 23.2746C22.9385 22.0398 22.9957 21.463 22.998 16.4267L23 11.8151L22.5927 11.4167L22.1854 11.0182H11.5H0.814583L0.407292 11.4167ZM6.20114 15.3448C5.86764 15.6362 5.8099 15.7656 5.8099 16.221C5.8099 16.9737 6.25109 17.4053 7.02039 17.4053C7.4859 17.4053 7.61815 17.3488 7.91607 17.0225C8.97575 15.8623 7.38707 14.3081 6.20114 15.3448ZM10.7953 15.1939C9.81729 15.8641 10.3139 17.4631 11.5 17.4631C12.2983 17.4631 12.8975 16.6604 12.6803 15.8818C12.4648 15.1087 11.4565 14.7408 10.7953 15.1939ZM15.3465 15.1664C14.665 15.5359 14.5391 16.426 15.0839 17.0225C15.3818 17.3488 15.5141 17.4053 15.9796 17.4053C16.7489 17.4053 17.1901 16.9737 17.1901 16.221C17.1901 15.7656 17.1324 15.6362 16.7989 15.3448C16.367 14.9673 15.8343 14.9018 15.3465 15.1664ZM6.52865 19.4443C6.05978 19.6427 5.8099 20.0416 5.8099 20.5914C5.8099 21.0359 5.86967 21.1684 6.20114 21.4581C7.0489 22.1992 8.26562 21.6455 8.26562 20.5185C8.26562 19.7795 7.23817 19.1441 6.52865 19.4443ZM10.901 19.5395C10.3427 19.8187 10.1065 20.4579 10.3504 21.0292C10.9714 22.4832 13.0905 21.7176 12.675 20.1892C12.4874 19.4995 11.6179 19.181 10.901 19.5395ZM15.4996 19.4484C15.1164 19.6081 14.7344 20.1494 14.7344 20.5326C14.7344 21.6461 15.9568 22.1941 16.7989 21.4581C17.5785 20.7767 17.1949 19.528 16.1654 19.3959C15.9384 19.3668 15.6388 19.3904 15.4996 19.4484Z" fill="url(#paint0_linear_563_5628)"/>
<defs>
<linearGradient id="paint0_linear_563_5628" x1="24.7692" y1="26.2583" x2="2.49833" y2="6.99492" gradientUnits="userSpaceOnUse">
<stop stop-color="#6F0473"/>
<stop offset="1" stop-color="#900E95"/>
</linearGradient>
</defs>
</svg>
