<svg width="26" height="27" viewBox="0 0 26 27" fill="none" xmlns="http://www.w3.org/2000/svg">
<path fill-rule="evenodd" clip-rule="evenodd" d="M20.4739 0.32994C19.7282 0.518151 18.9555 0.99412 18.3046 1.6662L17.6564 2.33539L16.9699 2.00399C16.0866 1.57742 14.6706 1.4735 13.7585 1.76809C11.5112 2.49426 10.1672 4.79739 10.684 7.03715C10.9535 8.20536 11.8558 9.40611 12.8667 9.94204L13.3457 10.1959L6.67287 16.8669C0.813101 22.7249 0 23.5769 0 23.8579C0 24.1209 0.186218 24.3634 1.04299 25.2164C2.38431 26.5516 2.39061 26.552 3.58789 25.3843L4.48022 24.5139L5.3875 25.3843C6.54218 26.4919 6.68889 26.5095 7.59317 25.6476L8.22999 25.0406L7.43696 24.2339C6.3487 23.127 6.2117 22.8217 6.62012 22.4136C6.74548 22.2883 6.97601 22.2002 7.17846 22.2002C7.4675 22.2002 7.666 22.342 8.40531 23.077L9.28739 23.9538L9.7775 23.4771C10.2931 22.9757 10.5708 22.5443 10.5708 22.2451C10.5708 22.1466 10.1638 21.6504 9.66634 21.1424L8.76195 20.2189L12.4161 16.5685L16.0705 12.9182L16.3223 13.3926C16.9597 14.5932 18.4217 15.5397 19.8193 15.6566C21.6752 15.8117 23.3724 14.848 24.204 13.1665C24.5494 12.4682 24.6062 12.2444 24.6453 11.4262C24.6927 10.4366 24.5386 9.72385 24.1181 8.98818L23.9151 8.63289L24.609 7.96294C25.0976 7.49124 25.4061 7.07545 25.6515 6.55766C25.9761 5.87278 26 5.7457 26 4.70211C26 3.66247 25.9753 3.52974 25.6574 2.85905C25.209 1.9132 24.3615 1.06411 23.4318 0.629434C22.8494 0.357041 22.5664 0.293663 21.8009 0.264322C21.2915 0.244797 20.6944 0.274351 20.4739 0.32994ZM20.9357 3.38954C19.6186 4.08125 19.9489 5.97617 21.4179 6.15595C22.1983 6.25133 22.9245 5.66216 23.0237 4.85287C23.1601 3.73993 21.9215 2.87175 20.9357 3.38954ZM14.3405 4.80411C13.6338 5.23474 13.4235 5.90873 13.7592 6.66713C14.3861 8.08319 16.5483 7.63411 16.5499 6.08745C16.5512 4.95669 15.2912 4.22486 14.3405 4.80411ZM19.4657 9.9255C18.7725 10.3479 18.5564 11.0474 18.8879 11.7963C19.0646 12.1953 19.1962 12.3263 19.6002 12.5049C20.3804 12.8497 21.132 12.5916 21.5175 11.8466C22.1741 10.5779 20.6844 9.18312 19.4657 9.9255Z" fill="url(#paint0_linear_563_5623)"/>
<defs>
<linearGradient id="paint0_linear_563_5623" x1="28" y1="26.2583" x2="5.5" y2="4.2583" gradientUnits="userSpaceOnUse">
<stop stop-color="#6F0473"/>
<stop offset="1" stop-color="#900E95"/>
</linearGradient>
</defs>
</svg>
