<svg width="48" height="48" viewBox="0 0 48 48" fill="none" xmlns="http://www.w3.org/2000/svg">
<circle cx="24" cy="24.2266" r="22.2422" stroke="#3DAC13" stroke-width="2"/>
<mask id="path-2-inside-1_442_130811" fill="white">
<path fill-rule="evenodd" clip-rule="evenodd" d="M29.7593 19.8554C30.1498 20.2459 30.1498 20.8791 29.7593 21.2696L22.5262 28.5027C22.5002 28.5363 22.4718 28.5686 22.441 28.5995C22.2443 28.7962 21.986 28.8938 21.7281 28.8923C21.4703 28.8938 21.2119 28.7962 21.0152 28.5995C20.9844 28.5686 20.956 28.5363 20.9301 28.5027L18.2538 25.8265C17.8633 25.436 17.8633 24.8028 18.2538 24.4123C18.6444 24.0218 19.2775 24.0218 19.668 24.4123L21.4453 26.1895C21.6015 26.3457 21.8547 26.3457 22.0109 26.1895L28.3451 19.8554C28.7356 19.4649 29.3687 19.4649 29.7593 19.8554Z"/>
</mask>
<path fill-rule="evenodd" clip-rule="evenodd" d="M29.7593 19.8554C30.1498 20.2459 30.1498 20.8791 29.7593 21.2696L22.5262 28.5027C22.5002 28.5363 22.4718 28.5686 22.441 28.5995C22.2443 28.7962 21.986 28.8938 21.7281 28.8923C21.4703 28.8938 21.2119 28.7962 21.0152 28.5995C20.9844 28.5686 20.956 28.5363 20.9301 28.5027L18.2538 25.8265C17.8633 25.436 17.8633 24.8028 18.2538 24.4123C18.6444 24.0218 19.2775 24.0218 19.668 24.4123L21.4453 26.1895C21.6015 26.3457 21.8547 26.3457 22.0109 26.1895L28.3451 19.8554C28.7356 19.4649 29.3687 19.4649 29.7593 19.8554Z" fill="#6F0473"/>
<path d="M29.7593 21.2696L30.4664 21.9767L30.4664 21.9767L29.7593 21.2696ZM29.7593 19.8554L30.4664 19.1483L30.4664 19.1483L29.7593 19.8554ZM22.5262 28.5027L21.8191 27.7956L21.7738 27.8408L21.7348 27.8914L22.5262 28.5027ZM22.441 28.5995L21.7339 27.8923L21.7339 27.8923L22.441 28.5995ZM21.7281 28.8923L21.7339 27.8923L21.7223 27.8923L21.7281 28.8923ZM21.0152 28.5995L21.7223 27.8923L21.7223 27.8923L21.0152 28.5995ZM20.9301 28.5027L21.7215 27.8914L21.6824 27.8408L21.6372 27.7956L20.9301 28.5027ZM18.2538 25.8265L17.5467 26.5336L17.5467 26.5336L18.2538 25.8265ZM18.2538 24.4123L18.9609 25.1194L18.9609 25.1194L18.2538 24.4123ZM19.668 24.4123L18.9609 25.1194L18.9609 25.1194L19.668 24.4123ZM28.3451 19.8554L27.6379 19.1483L27.6379 19.1483L28.3451 19.8554ZM22.0109 26.1895L21.3038 25.4824L22.0109 26.1895ZM30.4664 21.9767C31.2474 21.1957 31.2474 19.9293 30.4664 19.1483L29.0522 20.5625V20.5625L30.4664 21.9767ZM23.2333 29.2098L30.4664 21.9767L29.0522 20.5625L21.8191 27.7956L23.2333 29.2098ZM21.7348 27.8914C21.7348 27.8914 21.7347 27.8915 21.7346 27.8916C21.7344 27.8918 21.7342 27.892 21.7339 27.8923L23.1481 29.3066C23.2091 29.2456 23.2657 29.1812 23.3176 29.114L21.7348 27.8914ZM21.7339 27.8923L21.7339 27.8923L21.7223 29.8923C22.2364 29.8953 22.7548 29.6999 23.1481 29.3066L21.7339 27.8923ZM20.3081 29.3066C20.7014 29.6999 21.2198 29.8953 21.7339 29.8923L21.7223 27.8923L21.7223 27.8923L20.3081 29.3066ZM20.1386 29.114C20.1906 29.1812 20.2471 29.2456 20.3081 29.3066L21.7223 27.8923C21.722 27.892 21.7218 27.8918 21.7216 27.8916C21.7215 27.8915 21.7215 27.8914 21.7215 27.8914L20.1386 29.114ZM21.6372 27.7956L18.9609 25.1194L17.5467 26.5336L20.2229 29.2098L21.6372 27.7956ZM18.9609 25.1194L18.9609 25.1194L17.5467 23.7052C16.7657 24.4862 16.7657 25.7525 17.5467 26.5336L18.9609 25.1194ZM18.9609 25.1194H18.9609L20.3752 23.7052C19.5941 22.9241 18.3278 22.9241 17.5467 23.7052L18.9609 25.1194ZM18.9609 25.1194L20.7382 26.8966L22.1524 25.4824L20.3752 23.7052L18.9609 25.1194ZM27.6379 19.1483L21.3038 25.4824L22.7181 26.8966L29.0522 20.5625L27.6379 19.1483ZM30.4664 19.1483C29.6853 18.3672 28.419 18.3672 27.6379 19.1483L29.0522 20.5625L29.0522 20.5625L30.4664 19.1483ZM20.7382 26.8966C21.2849 27.4433 22.1713 27.4433 22.7181 26.8966L21.3038 25.4824C21.5382 25.2481 21.9181 25.2481 22.1524 25.4824L20.7382 26.8966Z" fill="#3DAC13" mask="url(#path-2-inside-1_442_130811)"/>
</svg>
