<svg width="24" height="25" viewBox="0 0 24 25" fill="none" xmlns="http://www.w3.org/2000/svg">
<path fill-rule="evenodd" clip-rule="evenodd" d="M2.25892 0.381448C1.20473 0.675978 0.313851 1.63451 0.0895359 2.71519C0.0144156 3.07702 -0.0168668 3.90053 0.00887087 4.83374C0.0474773 6.23281 0.0738424 6.40415 0.324627 6.88373C0.666959 7.53831 1.25987 8.1168 1.87192 8.39332C2.2854 8.58015 2.56035 8.60642 4.12888 8.60841C6.19343 8.61103 6.61821 8.51359 7.35016 7.86905C7.91921 7.36791 8.26301 6.69051 8.34755 5.90374L8.41095 5.31373L12.0728 5.28202C16.6211 5.24256 17.0602 5.27574 17.7834 5.7144C18.4185 6.09957 18.8656 6.80585 18.962 7.57609L19.0225 8.05902L18.4172 8.11397C17.7724 8.17237 17.1676 8.4309 16.6441 8.87154C16.1698 9.27074 15.6824 10.3121 15.6824 10.9259V11.4284L11.105 11.4587L6.52771 11.489L5.82244 11.8232C5.0321 12.1978 4.20557 12.9567 3.86878 13.617C3.60189 14.1404 3.33666 15.1252 3.33666 15.593C3.33666 15.9337 3.33143 15.9373 2.8397 15.9396C1.87443 15.9441 0.869512 16.6319 0.31971 17.6643C0.047582 18.1753 0.0409905 18.2319 0.0409905 20.0717C0.0409905 22.2326 0.132014 22.57 0.930299 23.3686C1.72858 24.1672 2.06589 24.2583 4.22597 24.2583C6.06496 24.2583 6.12156 24.2517 6.63233 23.9795C7.66435 23.4294 8.35184 22.4241 8.35634 21.4585L8.35864 20.9613H10.8395H13.3205L12.8274 21.462C12.4216 21.8742 12.3344 22.0303 12.3344 22.3442C12.3344 22.8024 12.7134 23.1593 13.2002 23.1593C13.4632 23.1593 13.7355 22.94 14.8601 21.8233C16.6606 20.0355 16.6636 20.2015 14.7966 18.3521C13.4466 17.0148 13.3734 16.9592 13.0441 17.0228C12.6025 17.1082 12.3344 17.4359 12.3344 17.8898C12.3344 18.1729 12.4375 18.3593 12.8213 18.7698L13.3083 19.2906L10.8596 19.2625L8.41095 19.2343L8.34713 18.6587C8.18203 17.1708 7.16006 16.1179 5.7244 15.9567L5.06297 15.8824L5.09435 15.4128C5.15901 14.4452 5.94212 13.4787 6.87035 13.2208C7.109 13.1545 8.89306 13.1123 11.4712 13.112L15.6824 13.1114V13.6179C15.6824 14.2362 16.168 15.2759 16.6441 15.6765C17.4631 16.366 17.6468 16.4083 19.815 16.4083C21.7701 16.4083 21.8117 16.4037 22.3354 16.1272C22.9581 15.7986 23.4707 15.2502 23.7797 14.582C23.9772 14.1551 24 13.9157 24 12.274C24 10.6323 23.9772 10.393 23.7797 9.96604C23.3011 8.93141 22.3516 8.22816 21.2844 8.11795L20.7423 8.06206L20.6312 7.29014C20.4892 6.30398 20.1104 5.53447 19.4339 4.8577C18.8211 4.24467 18.0792 3.84642 17.2636 3.69287C16.9422 3.63238 14.9079 3.58674 12.5294 3.58674H8.35864L8.35759 3.08958C8.3556 2.11964 7.51599 0.93733 6.50856 0.4858C5.971 0.244859 3.00804 0.172011 2.25892 0.381448Z" fill="url(#paint0_linear_563_5617)"/>
<defs>
<linearGradient id="paint0_linear_563_5617" x1="25.8462" y1="24.2583" x2="5.07692" y2="3.95061" gradientUnits="userSpaceOnUse">
<stop stop-color="#6F0473"/>
<stop offset="1" stop-color="#900E95"/>
</linearGradient>
</defs>
</svg>
