<svg width="20" height="20" viewBox="0 0 20 20" fill="none" xmlns="http://www.w3.org/2000/svg">
<g clip-path="url(#clip0_149_6114)">
<rect width="20" height="20" fill="white" fill-opacity="0.01"/>
<path opacity="0.4" d="M14.9587 6.42492L14.842 6.35825L13.6837 5.69159L11.292 4.30825C10.5587 3.88325 9.44199 3.88325 8.70866 4.30825L6.31699 5.69159L5.15866 6.36659L5.00866 6.44992C3.51699 7.44992 3.41699 7.63325 3.41699 9.24159V13.0833C3.41699 14.6916 3.51699 14.8749 5.04199 15.8999L8.70866 18.0166C9.07533 18.2333 9.53366 18.3333 10.0003 18.3333C10.4587 18.3333 10.9253 18.2333 11.292 18.0166L14.992 15.8749C16.4837 14.8749 16.5837 14.6916 16.5837 13.0833V9.24159C16.5837 7.63325 16.4837 7.44992 14.9587 6.42492Z" fill="currentColor" fill-opacity="0.85"/>
<path d="M5.1582 6.36675L6.31654 5.69175L8.59987 4.37508L8.7082 4.30842C9.44154 3.88341 10.5582 3.88341 11.2915 4.30842L11.3999 4.37508L13.6832 5.69175L14.8415 6.35842V4.57508C14.8415 2.70008 13.8082 1.66675 11.9332 1.66675H8.0582C6.1832 1.66675 5.1582 2.70008 5.1582 4.57508V6.36675Z" fill="currentColor" fill-opacity="0.85"/>
<path d="M12.3668 11.1167L11.8501 11.75C11.7668 11.8417 11.7084 12.025 11.7168 12.15L11.7668 12.9667C11.8001 13.4667 11.4418 13.725 10.9751 13.5417L10.2168 13.2417C10.1001 13.2 9.90011 13.2 9.78345 13.2417L9.02511 13.5417C8.55845 13.725 8.20011 13.4667 8.23345 12.9667L8.28345 12.15C8.29178 12.025 8.23345 11.8417 8.15011 11.75L7.63345 11.1167C7.30845 10.7333 7.45011 10.3083 7.93345 10.1833L8.72511 9.98332C8.85011 9.94998 9.00011 9.83332 9.06678 9.72498L9.50845 9.04165C9.78345 8.61665 10.2168 8.61665 10.4918 9.04165L10.9334 9.72498C11.0001 9.83332 11.1501 9.94998 11.2751 9.98332L12.0668 10.1833C12.5501 10.3083 12.6918 10.7333 12.3668 11.1167Z" fill="currentColor" fill-opacity="0.85"/>
</g>
<defs>
<clipPath id="clip0_149_6114">
<rect width="20" height="20" fill="white"/>
</clipPath>
</defs>
</svg>
