<svg width="27" height="28" viewBox="0 0 27 28" fill="none" xmlns="http://www.w3.org/2000/svg">
<rect x="0.195312" y="0.875" width="26.4536" height="26.4536" rx="8" fill="white"/>
<path d="M8.32187 14.2969C8.32187 16.1496 8.64918 17.4342 9.46685 18.2519C10.2845 19.0696 11.5692 19.3969 13.4219 19.3969C15.2746 19.3969 16.5592 19.0696 17.3769 18.2519C18.1946 17.4342 18.5219 16.1496 18.5219 14.2969C18.5219 14.0346 18.3091 13.8219 18.0469 13.8219C17.7846 13.8219 17.5719 14.0346 17.5719 14.2969C17.5719 15.9219 17.3225 16.9476 16.6975 17.5725C16.0726 18.1975 15.0469 18.4469 13.4219 18.4469C11.7969 18.4469 10.7712 18.1975 10.1462 17.5725C9.52123 16.9476 9.27188 15.9219 9.27188 14.2969C9.27188 12.6719 9.52123 11.6462 10.1462 11.0212C10.7712 10.3962 11.7969 10.1469 13.4219 10.1469C13.6841 10.1469 13.8969 9.9341 13.8969 9.67188C13.8969 9.40965 13.6841 9.19687 13.4219 9.19687C11.5692 9.19687 10.2845 9.52418 9.46685 10.3419C8.64918 11.1595 8.32187 12.4442 8.32187 14.2969Z" fill="#007BFE" stroke="#007BFE" stroke-width="0.2"/>
<path d="M17.6436 12.4603L17.6436 12.4603L17.1193 13.0523C17.107 13.0709 17.0934 13.0887 17.0784 13.1056M17.6436 12.4603L12.0067 16.076C12.0512 16.1705 12.1332 16.2425 12.2327 16.2735L12.2011 16.3684C12.2014 16.3685 12.2017 16.3686 12.202 16.3687C12.2417 16.3818 12.5829 16.4845 13.0307 16.4845C13.5394 16.4845 14.1987 16.3506 14.7006 15.7833C14.7006 15.7833 14.7006 15.7833 14.7006 15.7833L17.0297 13.1534C17.0468 13.1389 17.0631 13.1229 17.0784 13.1056M17.6436 12.4603C18.2563 11.7684 18.1913 10.7078 17.5001 10.0947L17.5 10.0946C17.1652 9.79808 16.7322 9.64906 16.2876 9.67669M17.6436 12.4603L12.1929 13.5627L15.1349 10.2387L15.1349 10.2387C15.4314 9.90392 15.8411 9.70382 16.2876 9.67669M17.0784 13.1056C17.0783 13.1057 17.0783 13.1057 17.0783 13.1058L17.0034 13.0394L17.0785 13.1055C17.0784 13.1056 17.0784 13.1056 17.0784 13.1056ZM16.2876 9.67669C16.2876 9.67669 16.2876 9.6767 16.2875 9.6767L16.2937 9.7765L16.2877 9.67669C16.2877 9.67669 16.2876 9.67669 16.2876 9.67669ZM16.9367 10.7315C16.7712 10.5855 16.5567 10.511 16.3392 10.525C16.1192 10.539 15.9177 10.637 15.7712 10.802L15.4509 11.164M16.9367 10.7315L16.8704 10.8064C16.8705 10.8064 16.8705 10.8064 16.8705 10.8065M16.9367 10.7315C17.2772 11.033 17.3087 11.556 17.0072 11.897M16.9367 10.7315L16.8706 10.8065C16.8706 10.8065 16.8706 10.8065 16.8705 10.8065M16.8705 10.8065C16.7246 10.6777 16.5361 10.6125 16.3457 10.6248L16.3456 10.6248C16.1518 10.6371 15.975 10.7232 15.846 10.8684L15.8461 10.8683L15.7713 10.802L15.846 10.8684L15.5921 11.1554M16.8705 10.8065C17.1695 11.0713 17.1973 11.531 16.9324 11.8307M15.5921 11.1554L15.5172 11.0891L15.4509 11.164M15.5921 11.1554L15.5258 11.2303L15.4509 11.164M15.5921 11.1554L16.6787 12.1172M15.4509 11.164L16.6872 12.2583M16.6872 12.2583L16.6124 12.192L16.6787 12.1172M16.6872 12.2583L16.7535 12.1835L16.6787 12.1172M16.6872 12.2583L17.0072 11.897M16.6787 12.1172L16.9323 11.8308L17.0072 11.897M17.0072 11.897L16.9324 11.8307M17.0072 11.897L16.9324 11.8307M17.0072 11.897L16.9324 11.8307M13.9894 15.1537L14.0642 15.22L13.9894 15.1537C13.7926 15.3759 13.5356 15.4766 13.2849 15.5143C13.0643 15.5475 12.853 15.5311 12.7026 15.5081C12.6105 15.1935 12.5238 14.6221 12.9045 14.1929L12.9046 14.1928L14.9625 11.8669L16.0485 12.8287L13.9894 15.1537Z" fill="#007BFE" stroke="#007BFE" stroke-width="0.2"/>
</svg>
