<svg width="20" height="20" viewBox="0 0 20 20" fill="none" xmlns="http://www.w3.org/2000/svg">
<g clip-path="url(#clip0_149_6102)">
<rect width="20" height="20" fill="white" fill-opacity="0.01"/>
<path opacity="0.4" d="M10.0003 4.41674V17.7751C9.85866 17.7751 9.70866 17.7501 9.59199 17.6834L9.55866 17.6667C7.95866 16.7917 5.16699 15.8751 3.35866 15.6334L3.11699 15.6001C2.31699 15.5001 1.66699 14.7501 1.66699 13.9501V3.88341C1.66699 2.89174 2.47533 2.14174 3.46699 2.22508C5.21699 2.36674 7.86699 3.25008 9.35033 4.17508L9.55866 4.30008C9.68366 4.37508 9.84199 4.41674 10.0003 4.41674Z" fill="currentColor" fill-opacity="0.85"/>
<path d="M18.3333 3.89177V13.9501C18.3333 14.7501 17.6833 15.5001 16.8833 15.6001L16.6083 15.6334C14.7917 15.8751 11.9917 16.8001 10.3917 17.6834C10.2833 17.7501 10.15 17.7751 10 17.7751V4.41677C10.1583 4.41677 10.3167 4.37511 10.4417 4.30011L10.5833 4.20844C12.0667 3.27511 14.725 2.38344 16.475 2.23344H16.525C17.5167 2.15011 18.3333 2.89177 18.3333 3.89177Z" fill="currentColor" fill-opacity="0.85"/>
<path d="M6.45801 7.69995H4.58301C4.24134 7.69995 3.95801 7.41662 3.95801 7.07495C3.95801 6.73328 4.24134 6.44995 4.58301 6.44995H6.45801C6.79967 6.44995 7.08301 6.73328 7.08301 7.07495C7.08301 7.41662 6.79967 7.69995 6.45801 7.69995Z" fill="currentColor" fill-opacity="0.85"/>
<path d="M7.08301 10.2H4.58301C4.24134 10.2 3.95801 9.91662 3.95801 9.57495C3.95801 9.23328 4.24134 8.94995 4.58301 8.94995H7.08301C7.42467 8.94995 7.70801 9.23328 7.70801 9.57495C7.70801 9.91662 7.42467 10.2 7.08301 10.2Z" fill="currentColor" fill-opacity="0.85"/>
</g>
<defs>
<clipPath id="clip0_149_6102">
<rect width="20" height="20" fill="white"/>
</clipPath>
</defs>
</svg>
