<svg width="45" height="45" viewBox="0 0 45 45" fill="none" xmlns="http://www.w3.org/2000/svg">
<path d="M45 38.5714L35.461 45H0.492188V0H45V38.5714Z" fill="#6F0473"/>
<path d="M14.7864 13.0176C12.5944 13.0176 10.8125 11.216 10.8125 8.99979C10.8125 6.78354 12.5944 4.98193 14.7864 4.98193C16.9784 4.98193 18.7603 6.78354 18.7603 8.99979C18.7603 11.216 16.9784 13.0176 14.7864 13.0176ZM14.7864 6.58908C13.4718 6.58908 12.4021 7.67068 12.4021 8.99979C12.4021 10.3289 13.4718 11.4105 14.7864 11.4105C16.101 11.4105 17.1708 10.3289 17.1708 8.99979C17.1708 7.67068 16.101 6.58908 14.7864 6.58908Z" fill="white"/>
<path d="M13.2255 16.2052C12.534 15.4386 11.4611 14.6254 10.0146 14.6254C8.7 14.6254 7.63022 15.707 7.63022 17.0361C7.63022 18.3652 8.7 19.4468 10.0146 19.4468C12.6501 19.4468 15.923 13.0182 19.552 13.0182C21.744 13.0182 23.5259 14.8198 23.5259 17.0361C23.5259 19.2523 21.744 21.0539 19.552 21.0539C17.5634 21.0539 16.1248 20.0012 15.2029 18.9904L16.3808 17.9104C17.0754 18.6673 18.1357 19.4452 19.552 19.4452C20.8665 19.4452 21.9363 18.3636 21.9363 17.0345C21.9363 15.7054 20.8665 14.6237 19.552 14.6237C18.2374 14.6237 16.7702 16.2036 15.187 17.7979C13.5768 19.4179 11.8426 21.0523 10.013 21.0523C7.82096 21.0523 6.03906 19.2507 6.03906 17.0345C6.03906 14.8182 7.82096 13.0166 10.013 13.0166C11.9999 13.0166 13.4369 14.0677 14.3557 15.0737L13.2239 16.2036L13.2255 16.2052Z" fill="white"/>
<path d="M6.46875 24.6152H7.87551C8.21886 24.6152 8.50339 24.7245 8.72911 24.9415C8.95482 25.1584 9.06768 25.4284 9.06768 25.7483C9.06768 26.0681 8.95483 26.3381 8.7307 26.5567C8.50657 26.7752 8.22045 26.8829 7.87551 26.8829H7.18564V27.9918H6.46875V24.6152ZM7.85167 25.2677H7.18564V26.2304H7.85167C7.99473 26.2304 8.11395 26.1838 8.20932 26.0922C8.30469 25.999 8.35238 25.8865 8.35238 25.7515C8.35238 25.6165 8.30469 25.5024 8.20932 25.4092C8.11395 25.3159 7.99473 25.2693 7.85167 25.2693V25.2677Z" fill="white"/>
<path d="M9.71875 27.9899V24.6133H11.197C11.5277 24.6133 11.8011 24.721 12.0173 24.9347C12.2334 25.1485 12.3415 25.412 12.3415 25.7222C12.3415 25.8572 12.3209 25.9842 12.2779 26.1015C12.235 26.2188 12.1873 26.3136 12.1301 26.386C12.0729 26.4583 12.0157 26.5194 11.9569 26.5724C11.898 26.6238 11.8472 26.6592 11.8058 26.6785L11.7454 26.7122L12.4607 27.9899H11.6978L11.0556 26.8086H10.4356V27.9899H9.71875ZM11.6278 25.7222C11.6278 25.5904 11.5849 25.4811 11.4991 25.3944C11.4132 25.3076 11.3051 25.2642 11.1748 25.2642H10.4372V26.1561H11.1748C11.3051 26.1561 11.4132 26.1144 11.4991 26.0308C11.5849 25.9472 11.6278 25.8427 11.6278 25.7206V25.7222Z" fill="white"/>
<path d="M13.0938 27.9899V24.6133H13.8106V27.9899H13.0938Z" fill="white"/>
<path d="M15.582 27.9899L14.3438 24.6133H15.1067L15.9635 27.1204L16.8235 24.6133H17.5865L16.345 27.9899H15.582Z" fill="white"/>
<path d="M19.6804 27.1944H18.3929L18.1067 27.9899H17.3438L18.6567 24.6133H19.4181L20.7311 27.9899H19.9681L19.682 27.1944H19.6804ZM19.4436 26.5676L19.0382 25.4586L18.6313 26.5676H19.4436Z" fill="white"/>
<path d="M20.5797 24.6152H23.2009V25.2677H22.2487V27.9918H21.5334V25.2677H20.5781V24.6152H20.5797Z" fill="white"/>
<path d="M24.4513 27.3406H26.2395V27.9899H23.7344V24.6133H26.1903V25.2658H24.4513V25.9408H25.8088V26.5901H24.4513V27.339V27.3406Z" fill="white"/>
<path d="M8.25701 31.8711L9.41262 30.3989H10.0453V33.7755H9.32997V31.5255L8.25701 32.9077L7.18564 31.5352V33.7771H6.46875V30.4005H7.11411L8.25701 31.8727V31.8711Z" fill="white"/>
<path d="M11.6231 33.1262H13.4114V33.7755H10.9062V30.3989H13.3621V31.0514H11.6231V31.7264H12.9806V32.3757H11.6231V33.1246V33.1262Z" fill="white"/>
<path d="M14.0781 30.4009H15.3196C15.806 30.4009 16.2129 30.5648 16.542 30.8911C16.871 31.2173 17.0363 31.6175 17.0363 32.09C17.0363 32.5625 16.871 32.9611 16.542 33.2889C16.2129 33.6168 15.806 33.7791 15.3196 33.7791H14.0781V30.4025V30.4009ZM15.3196 31.0534H14.795V33.1282H15.3196C15.5962 33.1282 15.8314 33.0286 16.0269 32.8261C16.2224 32.6236 16.321 32.3793 16.321 32.09C16.321 31.8007 16.2256 31.5548 16.0349 31.3539C15.8441 31.153 15.6057 31.0518 15.3196 31.0518V31.0534Z" fill="white"/>
<path d="M17.7031 33.7755V30.3989H18.42V33.7755H17.7031Z" fill="white"/>
<path d="M18.9391 30.4009H21.5603V31.0534H20.6081V33.7775H19.8928V31.0534H18.9375V30.4009H18.9391Z" fill="white"/>
<path d="M23.7507 32.98H22.4632L22.1771 33.7755H21.4141L22.727 30.3989H23.4884L24.8014 33.7755H24.0384L23.7523 32.98H23.7507ZM23.5139 32.3532L23.1085 31.2443L22.7016 32.3532H23.5139Z" fill="white"/>
<path d="M24.6578 30.4009H27.279V31.0534H26.3269V33.7775H25.6116V31.0534H24.6562V30.4009H24.6578Z" fill="white"/>
<path d="M27.8047 33.7755V30.3989H28.5216V33.7755H27.8047Z" fill="white"/>
<path d="M29.7121 33.3322C29.3624 32.9883 29.1875 32.5736 29.1875 32.0883C29.1875 31.6029 29.3624 31.1883 29.7121 30.846C30.0618 30.5036 30.4909 30.3301 30.9996 30.3301C31.5083 30.3301 31.9374 30.502 32.2872 30.846C32.6369 31.1899 32.8117 31.6045 32.8117 32.0883C32.8117 32.572 32.6369 32.9883 32.2872 33.3322C31.9374 33.6761 31.5083 33.8497 30.9996 33.8497C30.4909 33.8497 30.0618 33.6778 29.7121 33.3322ZM30.2398 31.3008C30.0316 31.5145 29.9282 31.7781 29.9282 32.0899C29.9282 32.4017 30.0316 32.6637 30.2398 32.8774C30.448 33.0912 30.7008 33.1972 30.9996 33.1972C31.2984 33.1972 31.5512 33.0912 31.7594 32.8774C31.9676 32.6637 32.071 32.4017 32.071 32.0899C32.071 31.7781 31.9676 31.5161 31.7594 31.3008C31.5512 31.087 31.2984 30.9794 30.9996 30.9794C30.7008 30.9794 30.448 31.087 30.2398 31.3008Z" fill="white"/>
<path d="M35.7417 30.4009H36.457V33.7775H35.8371L34.1935 31.6336V33.7775H33.4766V30.4009H34.0981L35.7417 32.548V30.4009Z" fill="white"/>
<path d="M8.09653 36.1159C8.27139 36.1159 8.43829 36.1384 8.59725 36.185C8.7562 36.2316 8.88496 36.2878 8.98669 36.3537C9.08842 36.4196 9.17903 36.4855 9.25692 36.5514C9.3348 36.6173 9.39203 36.6735 9.42541 36.7185L9.47945 36.7893L9.02484 37.2489C9.0153 37.236 9.00259 37.2184 8.98669 37.1959C8.9708 37.1734 8.93424 37.1348 8.87701 37.0785C8.81979 37.0239 8.75779 36.9757 8.69103 36.9339C8.62427 36.8921 8.53684 36.8535 8.42716 36.8182C8.31907 36.7828 8.2078 36.7652 8.09494 36.7652C7.78339 36.7652 7.5227 36.8712 7.31288 37.0834C7.10306 37.2955 6.99815 37.5591 6.99815 37.8741C6.99815 38.1891 7.10306 38.4526 7.31288 38.6648C7.5227 38.8769 7.78339 38.983 8.09494 38.983C8.21575 38.983 8.33179 38.9669 8.44306 38.9332C8.55433 38.8994 8.64652 38.8593 8.71964 38.8127C8.79276 38.766 8.85634 38.7194 8.91357 38.6728C8.97079 38.6262 9.01053 38.5844 9.03438 38.5507L9.07094 38.5009L9.50171 38.9605C9.48899 38.9798 9.46992 39.0039 9.44448 39.0344C9.41905 39.065 9.36183 39.1196 9.2744 39.1968C9.18698 39.2739 9.09319 39.343 8.99305 39.4009C8.8929 39.4603 8.76097 39.5134 8.59884 39.5616C8.4367 39.6098 8.26821 39.6339 8.09494 39.6339C7.58628 39.6339 7.15551 39.4619 6.80581 39.1164C6.45611 38.7725 6.28125 38.3578 6.28125 37.8725C6.28125 37.3871 6.45611 36.9725 6.80581 36.6302C7.15551 36.2878 7.58628 36.1143 8.09494 36.1143L8.09653 36.1159Z" fill="white"/>
<path d="M12.3433 39.5617H10.0781V36.1851H10.795V38.9108H12.3433V39.5601V39.5617Z" fill="white"/>
<path d="M13.6049 38.7531C13.7496 38.9058 13.9245 38.983 14.1279 38.983C14.3314 38.983 14.5046 38.9074 14.6493 38.7547C14.7939 38.6021 14.8655 38.414 14.8655 38.1874V36.1865H15.5808V38.1874C15.5808 38.5988 15.4425 38.9428 15.1659 39.2192C14.8893 39.4956 14.5428 39.6338 14.1263 39.6338C13.7099 39.6338 13.3633 39.4956 13.0867 39.2192C12.8102 38.9428 12.6719 38.5972 12.6719 38.1874V36.1865H13.3872V38.1874C13.3872 38.4124 13.4603 38.6005 13.6049 38.7531Z" fill="white"/>
<path d="M17.9273 39.5617H16.4141V36.1851H17.8463C18.1483 36.1851 18.3994 36.2751 18.5965 36.4535C18.7952 36.6318 18.8938 36.8408 18.8938 37.077C18.8938 37.167 18.8811 37.2522 18.8572 37.3326C18.8318 37.4129 18.8 37.4804 18.7618 37.5335C18.7237 37.5865 18.684 37.6331 18.6474 37.6717C18.6108 37.7102 18.5775 37.7376 18.5536 37.7536L18.5139 37.7777C18.5298 37.7842 18.5488 37.7938 18.5727 37.8051C18.5965 37.8163 18.641 37.8452 18.7046 37.8918C18.7682 37.9385 18.8238 37.9883 18.8715 38.0429C18.9192 38.0976 18.9637 38.1731 19.0035 38.2679C19.0432 38.3627 19.0623 38.464 19.0623 38.5733C19.0623 38.8433 18.9558 39.0747 18.7428 39.2708C18.5298 39.4668 18.258 39.5633 17.9273 39.5633V39.5617ZM17.797 36.7877H17.131V37.5126H17.797C17.9146 37.5126 18.0084 37.4788 18.0767 37.4129C18.1451 37.347 18.1785 37.2586 18.1785 37.1493C18.1785 37.0401 18.1451 36.9517 18.0767 36.8858C18.0084 36.8199 17.9146 36.7861 17.797 36.7861V36.7877ZM17.131 38.959H17.8924C18.0227 38.959 18.1308 38.9172 18.2166 38.8336C18.3025 38.7501 18.3454 38.6472 18.3454 38.5251C18.3454 38.4029 18.3025 38.3001 18.2166 38.2149C18.1308 38.1313 18.0227 38.0895 17.8924 38.0895H17.131V38.959Z" fill="white"/>
</svg>
