<svg width="140" height="28" viewBox="0 0 140 28" fill="none" xmlns="http://www.w3.org/2000/svg">
<rect x="5.97461" y="15.6057" width="6.83948" height="6.83948" rx="1.23091" transform="rotate(45 5.97461 15.6057)" fill="black" fill-opacity="0.85"/>
<rect width="22.2736" height="22.2736" rx="1.23091" transform="matrix(0.906835 0.421487 -0.906835 0.421487 20.1982 0)" fill="black" fill-opacity="0.85"/>
<rect x="9.1084" y="8.30542" width="22.1564" height="19.6946" rx="1.23091" fill="#0E84BF"/>
<rect x="21.9102" y="11.3242" width="3.44655" height="13.7862" fill="white"/>
<rect x="15.0166" y="11.3242" width="3.44655" height="13.7862" fill="white"/>
<rect x="5.16992" y="9.72412" width="1.60018" height="9.10873" fill="black" fill-opacity="0.85"/>
<path d="M52.0911 20.18C51.2151 20.18 50.4471 20.018 49.7871 19.694C49.1271 19.358 48.6111 18.896 48.2391 18.308C47.8791 17.708 47.6991 17.012 47.6991 16.22V10.64C47.6991 9.836 47.8791 9.14 48.2391 8.552C48.6111 7.964 49.1271 7.508 49.7871 7.184C50.4471 6.848 51.2151 6.68 52.0911 6.68C52.9791 6.68 53.7471 6.848 54.3951 7.184C55.0551 7.508 55.5651 7.964 55.9251 8.552C56.2971 9.14 56.4831 9.836 56.4831 10.64H53.7831C53.7831 10.112 53.6331 9.71 53.3331 9.434C53.0451 9.158 52.6311 9.02 52.0911 9.02C51.5511 9.02 51.1311 9.158 50.8311 9.434C50.5431 9.71 50.3991 10.112 50.3991 10.64V16.22C50.3991 16.736 50.5431 17.138 50.8311 17.426C51.1311 17.702 51.5511 17.84 52.0911 17.84C52.6311 17.84 53.0451 17.702 53.3331 17.426C53.6331 17.138 53.7831 16.736 53.7831 16.22H56.4831C56.4831 17.012 56.2971 17.708 55.9251 18.308C55.5651 18.896 55.0551 19.358 54.3951 19.694C53.7471 20.018 52.9791 20.18 52.0911 20.18ZM62.2721 20.18C61.3961 20.18 60.6341 20.018 59.9861 19.694C59.3381 19.358 58.8341 18.896 58.4741 18.308C58.1261 17.708 57.9521 17.012 57.9521 16.22V13.88C57.9521 13.088 58.1261 12.398 58.4741 11.81C58.8341 11.21 59.3381 10.748 59.9861 10.424C60.6341 10.088 61.3961 9.92 62.2721 9.92C63.1601 9.92 63.9221 10.088 64.5581 10.424C65.2061 10.748 65.7041 11.21 66.0521 11.81C66.4121 12.398 66.5921 13.088 66.5921 13.88V16.22C66.5921 17.012 66.4121 17.708 66.0521 18.308C65.7041 18.896 65.2061 19.358 64.5581 19.694C63.9221 20.018 63.1601 20.18 62.2721 20.18ZM62.2721 17.84C62.8001 17.84 63.2021 17.702 63.4781 17.426C63.7541 17.138 63.8921 16.736 63.8921 16.22V13.88C63.8921 13.352 63.7541 12.95 63.4781 12.674C63.2021 12.398 62.8001 12.26 62.2721 12.26C61.7561 12.26 61.3541 12.398 61.0661 12.674C60.7901 12.95 60.6521 13.352 60.6521 13.88V16.22C60.6521 16.736 60.7901 17.138 61.0661 17.426C61.3541 17.702 61.7561 17.84 62.2721 17.84ZM72.5251 20.18C71.1931 20.18 70.1491 19.82 69.3931 19.1C68.6491 18.38 68.2771 17.396 68.2771 16.148V10.1H70.9771V16.13C70.9771 16.682 71.1091 17.108 71.3731 17.408C71.6371 17.696 72.0211 17.84 72.5251 17.84C73.0171 17.84 73.3951 17.696 73.6591 17.408C73.9351 17.108 74.0731 16.682 74.0731 16.13V10.1H76.7731V16.148C76.7731 17.408 76.3951 18.398 75.6391 19.118C74.8831 19.826 73.8451 20.18 72.5251 20.18ZM78.854 20V10.1H81.374V11.99H82.058L81.284 13.142C81.284 12.074 81.53 11.27 82.022 10.73C82.514 10.19 83.234 9.92 84.182 9.92C85.274 9.92 86.12 10.25 86.72 10.91C87.332 11.57 87.638 12.5 87.638 13.7V14.51H84.758V13.88C84.758 13.34 84.608 12.92 84.308 12.62C84.02 12.32 83.63 12.17 83.138 12.17C82.622 12.17 82.226 12.32 81.95 12.62C81.686 12.92 81.554 13.34 81.554 13.88V20H78.854ZM92.617 20.18C91.801 20.18 91.087 20.054 90.475 19.802C89.863 19.538 89.383 19.178 89.035 18.722C88.699 18.266 88.531 17.732 88.531 17.12H91.231C91.231 17.408 91.357 17.642 91.609 17.822C91.873 17.99 92.209 18.074 92.617 18.074H93.409C93.901 18.074 94.273 17.984 94.525 17.804C94.789 17.624 94.921 17.372 94.921 17.048C94.921 16.748 94.807 16.52 94.579 16.364C94.351 16.196 93.997 16.082 93.517 16.022L92.365 15.878C91.129 15.722 90.229 15.422 89.665 14.978C89.101 14.534 88.819 13.856 88.819 12.944C88.819 11.984 89.149 11.24 89.809 10.712C90.469 10.184 91.435 9.92 92.707 9.92H93.391C94.603 9.92 95.569 10.184 96.289 10.712C97.009 11.24 97.369 11.948 97.369 12.836H94.669C94.669 12.596 94.549 12.404 94.309 12.26C94.081 12.104 93.775 12.026 93.391 12.026H92.707C92.263 12.026 91.939 12.104 91.735 12.26C91.531 12.404 91.429 12.626 91.429 12.926C91.429 13.202 91.519 13.412 91.699 13.556C91.891 13.7 92.191 13.802 92.599 13.862L93.841 14.024C95.089 14.18 96.013 14.492 96.613 14.96C97.225 15.428 97.531 16.124 97.531 17.048C97.531 18.056 97.183 18.83 96.487 19.37C95.791 19.91 94.765 20.18 93.409 20.18H92.617ZM103.302 20.18C102.426 20.18 101.658 20.018 100.998 19.694C100.35 19.358 99.846 18.896 99.486 18.308C99.138 17.708 98.964 17.012 98.964 16.22V13.88C98.964 13.088 99.138 12.398 99.486 11.81C99.846 11.21 100.35 10.748 100.998 10.424C101.658 10.088 102.426 9.92 103.302 9.92C104.178 9.92 104.934 10.088 105.57 10.424C106.218 10.748 106.716 11.21 107.064 11.81C107.424 12.398 107.604 13.088 107.604 13.88V15.68H101.538V16.22C101.538 16.844 101.688 17.318 101.988 17.642C102.288 17.954 102.738 18.11 103.338 18.11C103.758 18.11 104.094 18.038 104.346 17.894C104.61 17.75 104.784 17.552 104.868 17.3H107.514C107.298 18.164 106.806 18.86 106.038 19.388C105.282 19.916 104.37 20.18 103.302 20.18ZM105.03 14.294V13.844C105.03 13.232 104.886 12.764 104.598 12.44C104.322 12.116 103.89 11.954 103.302 11.954C102.714 11.954 102.27 12.122 101.97 12.458C101.682 12.794 101.538 13.268 101.538 13.88V14.15L105.21 14.114L105.03 14.294ZM114.563 20.18C113.747 20.18 113.105 19.946 112.637 19.478C112.169 18.998 111.935 18.332 111.935 17.48L112.565 18.11H111.935V20H109.325V6.86H112.025V9.56L111.935 11.99H112.565L111.935 12.62C111.935 11.768 112.169 11.108 112.637 10.64C113.105 10.16 113.747 9.92 114.563 9.92C115.559 9.92 116.357 10.274 116.957 10.982C117.557 11.678 117.857 12.614 117.857 13.79V16.31C117.857 17.498 117.557 18.44 116.957 19.136C116.357 19.832 115.559 20.18 114.563 20.18ZM113.591 17.84C114.095 17.84 114.479 17.702 114.743 17.426C115.019 17.138 115.157 16.736 115.157 16.22V13.88C115.157 13.364 115.019 12.968 114.743 12.692C114.479 12.404 114.095 12.26 113.591 12.26C113.099 12.26 112.715 12.404 112.439 12.692C112.163 12.968 112.025 13.364 112.025 13.88V16.22C112.025 16.736 112.163 17.138 112.439 17.426C112.715 17.702 113.099 17.84 113.591 17.84ZM123.79 20.18C122.914 20.18 122.152 20.018 121.504 19.694C120.856 19.358 120.352 18.896 119.992 18.308C119.644 17.708 119.47 17.012 119.47 16.22V13.88C119.47 13.088 119.644 12.398 119.992 11.81C120.352 11.21 120.856 10.748 121.504 10.424C122.152 10.088 122.914 9.92 123.79 9.92C124.678 9.92 125.44 10.088 126.076 10.424C126.724 10.748 127.222 11.21 127.57 11.81C127.93 12.398 128.11 13.088 128.11 13.88V16.22C128.11 17.012 127.93 17.708 127.57 18.308C127.222 18.896 126.724 19.358 126.076 19.694C125.44 20.018 124.678 20.18 123.79 20.18ZM123.79 17.84C124.318 17.84 124.72 17.702 124.996 17.426C125.272 17.138 125.41 16.736 125.41 16.22V13.88C125.41 13.352 125.272 12.95 124.996 12.674C124.72 12.398 124.318 12.26 123.79 12.26C123.274 12.26 122.872 12.398 122.584 12.674C122.308 12.95 122.17 13.352 122.17 13.88V16.22C122.17 16.736 122.308 17.138 122.584 17.426C122.872 17.702 123.274 17.84 123.79 17.84ZM135.123 20C134.115 20 133.323 19.712 132.747 19.136C132.171 18.56 131.883 17.768 131.883 16.76V12.53H129.273V10.1H131.883V7.31H134.583V10.1H138.273V12.53H134.583V16.76C134.583 17.3 134.853 17.57 135.393 17.57H138.093V20H135.123Z" fill="black" fill-opacity="0.85"/>
</svg>
