<?xml version="1.0" encoding="UTF-8"?>
<svg xmlns="http://www.w3.org/2000/svg" xmlns:xlink="http://www.w3.org/1999/xlink" width="px" height="px" viewBox="0 0 48 48" version="1.1">
<defs>
<filter id="alpha" filterUnits="objectBoundingBox" x="0%" y="0%" width="100%" height="100%">
  <feColorMatrix type="matrix" in="SourceGraphic" values="0 0 0 0 1 0 0 0 0 1 0 0 0 0 1 0 0 0 1 0"/>
</filter>
<mask id="mask0">
  <g filter="url(#alpha)">
<rect x="0" y="0" width="48" height="48" style="fill:rgb(0%,0%,0%);fill-opacity:0.4;stroke:none;"/>
  </g>
</mask>
<clipPath id="clip1">
  <rect x="0" y="0" width="48" height="48"/>
</clipPath>
<g id="surface5" clip-path="url(#clip1)">
<path style=" stroke:none;fill-rule:nonzero;fill:rgb(98.431373%,74.509804%,9.411765%);fill-opacity:1;" d="M 43.320312 20.878906 L 41.359375 29.238281 C 39.679688 36.460938 36.359375 39.378906 30.121094 38.78125 C 29.121094 38.699219 28.039062 38.519531 26.878906 38.238281 L 23.519531 37.441406 C 15.179688 35.460938 12.601562 31.339844 14.558594 22.980469 L 16.519531 14.601562 C 16.921875 12.898438 17.398438 11.421875 18 10.199219 C 20.339844 5.359375 24.320312 4.058594 31 5.640625 L 34.339844 6.421875 C 42.71875 8.378906 45.28125 12.519531 43.320312 20.878906 Z M 43.320312 20.878906 "/>
</g>
</defs>
<g id="surface1">
<rect x="0" y="0" width="48" height="48" style="fill:rgb(100%,100%,100%);fill-opacity:0.0117647;stroke:none;"/>
<use xlink:href="#surface5" mask="url(#mask0)"/>
<path style=" stroke:none;fill-rule:nonzero;fill:rgb(98.431373%,74.509804%,9.411765%);fill-opacity:1;" d="M 30.121094 38.78125 C 28.878906 39.621094 27.320312 40.320312 25.421875 40.941406 L 22.261719 41.980469 C 14.320312 44.539062 10.140625 42.398438 7.558594 34.460938 L 5 26.558594 C 2.441406 18.621094 4.558594 14.421875 12.5 11.859375 L 15.660156 10.820312 C 16.480469 10.558594 17.261719 10.339844 18 10.199219 C 17.398438 11.421875 16.921875 12.898438 16.519531 14.601562 L 14.558594 22.980469 C 12.601562 31.339844 15.179688 35.460938 23.519531 37.441406 L 26.878906 38.238281 C 28.039062 38.519531 29.121094 38.699219 30.121094 38.78125 Z M 30.121094 38.78125 "/>
<path style=" stroke:none;fill-rule:nonzero;fill:rgb(98.431373%,74.509804%,9.411765%);fill-opacity:1;" d="M 34.980469 21.019531 C 34.859375 21.019531 34.738281 21 34.601562 20.980469 L 24.898438 18.519531 C 24.101562 18.320312 23.621094 17.5 23.820312 16.699219 C 24.019531 15.898438 24.839844 15.421875 25.640625 15.621094 L 35.339844 18.078125 C 36.140625 18.28125 36.621094 19.101562 36.421875 19.898438 C 36.261719 20.558594 35.640625 21.019531 34.980469 21.019531 Z M 34.980469 21.019531 "/>
<path style=" stroke:none;fill-rule:nonzero;fill:rgb(98.431373%,74.509804%,9.411765%);fill-opacity:1;" d="M 29.121094 27.78125 C 29 27.78125 28.878906 27.761719 28.738281 27.738281 L 22.921875 26.261719 C 22.121094 26.058594 21.640625 25.238281 21.839844 24.441406 C 22.039062 23.640625 22.859375 23.160156 23.660156 23.359375 L 29.480469 24.839844 C 30.28125 25.039062 30.761719 25.859375 30.558594 26.660156 C 30.398438 27.339844 29.800781 27.78125 29.121094 27.78125 Z M 29.121094 27.78125 "/>
</g>
</svg>
