<?xml version="1.0" encoding="UTF-8"?>
<svg xmlns="http://www.w3.org/2000/svg" xmlns:xlink="http://www.w3.org/1999/xlink" width="px" height="px" viewBox="0 0 48 48" version="1.1">
<defs>
<filter id="alpha" filterUnits="objectBoundingBox" x="0%" y="0%" width="100%" height="100%">
  <feColorMatrix type="matrix" in="SourceGraphic" values="0 0 0 0 1 0 0 0 0 1 0 0 0 0 1 0 0 0 1 0"/>
</filter>
<mask id="mask0">
  <g filter="url(#alpha)">
<rect x="0" y="0" width="48" height="48" style="fill:rgb(0%,0%,0%);fill-opacity:0.4;stroke:none;"/>
  </g>
</mask>
<clipPath id="clip1">
  <rect x="0" y="0" width="48" height="48"/>
</clipPath>
<g id="surface5" clip-path="url(#clip1)">
<path style=" stroke:none;fill-rule:nonzero;fill:rgb(5.490196%,51.764706%,74.901961%);fill-opacity:1;" d="M 41 14 L 41 30 L 12.699219 30 C 9.558594 30 7 32.558594 7 35.699219 L 7 14 C 7 6 9 4 17 4 L 31 4 C 39 4 41 6 41 14 Z M 41 14 "/>
</g>
</defs>
<g id="surface1">
<rect x="0" y="0" width="48" height="48" style="fill:rgb(100%,100%,100%);fill-opacity:0.0117647;stroke:none;"/>
<use xlink:href="#surface5" mask="url(#mask0)"/>
<path style=" stroke:none;fill-rule:nonzero;fill:rgb(5.490196%,51.764706%,74.901961%);fill-opacity:1;" d="M 41 30 L 41 37 C 41 40.859375 37.859375 44 34 44 L 14 44 C 10.140625 44 7 40.859375 7 37 L 7 35.699219 C 7 32.558594 9.558594 30 12.699219 30 Z M 41 30 "/>
<path style=" stroke:none;fill-rule:nonzero;fill:rgb(5.490196%,51.764706%,74.901961%);fill-opacity:1;" d="M 32 15.5 L 16 15.5 C 15.179688 15.5 14.5 14.820312 14.5 14 C 14.5 13.179688 15.179688 12.5 16 12.5 L 32 12.5 C 32.820312 12.5 33.5 13.179688 33.5 14 C 33.5 14.820312 32.820312 15.5 32 15.5 Z M 32 15.5 "/>
<path style=" stroke:none;fill-rule:nonzero;fill:rgb(5.490196%,51.764706%,74.901961%);fill-opacity:1;" d="M 26 22.5 L 16 22.5 C 15.179688 22.5 14.5 21.820312 14.5 21 C 14.5 20.179688 15.179688 19.5 16 19.5 L 26 19.5 C 26.820312 19.5 27.5 20.179688 27.5 21 C 27.5 21.820312 26.820312 22.5 26 22.5 Z M 26 22.5 "/>
</g>
</svg>
